<svg xmlns="http://www.w3.org/2000/svg" width="2000" zoomAndPan="magnify" viewBox="0 0 1500 1499.999933" height="2000" preserveAspectRatio="xMidYMid meet" version="1.0"><defs><filter x="0%" y="0%" width="100%" height="100%" id="e9bfd12830"><feColorMatrix values="0 0 0 0 1 0 0 0 0 1 0 0 0 0 1 0 0 0 1 0" color-interpolation-filters="sRGB" /></filter><filter x="0%" y="0%" width="100%" height="100%" id="f029fed8c3"><feColorMatrix values="0 0 0 0 1 0 0 0 0 1 0 0 0 0 1 0.2126 0.7152 0.0722 0 0" color-interpolation-filters="sRGB" /></filter><g /><clipPath id="2dacac4586"><path d="M 607.535156 256.425781 L 918.785156 256.425781 L 918.785156 911.925781 L 607.535156 911.925781 Z M 607.535156 256.425781 " clip-rule="nonzero" /></clipPath><clipPath id="89cff5f921"><path d="M 512.085938 354.722656 L 987.585938 354.722656 L 987.585938 869.972656 L 512.085938 869.972656 Z M 512.085938 354.722656 " clip-rule="nonzero" /></clipPath><clipPath id="5468a3effe"><path d="M 0.0859375 1 L 475.585938 1 L 475.585938 515.890625 L 0.0859375 515.890625 Z M 0.0859375 1 " clip-rule="nonzero" /></clipPath><clipPath id="ab0552e2f5"><rect x="0" width="476" y="0" height="516" /></clipPath><clipPath id="7fd75ae1de"><rect x="0" width="591" y="0" height="39" /></clipPath></defs><rect x="-150" width="1800" fill="#ffffff" y="-149.999993" height="1799.99992" fill-opacity="1" /><rect x="-150" width="1800" fill="#000000" y="-149.999993" height="1799.99992" fill-opacity="1" /><g clip-path="url(#2dacac4586)" /><g clip-path="url(#89cff5f921)"><g transform="matrix(1, 0, 0, 1, 512, 354)"><g clip-path="url(#ab0552e2f5)"><g clip-path="url(#5468a3effe)"><g><g transform="matrix(0.503708, 0, 0, -0.512687, 0.0846963, 515.889573)" /></g></g></g></g></g><g fill="#ffffff" fill-opacity="1"><g transform="translate(381.5625, 1029.765995)"><g><path d="M 76.71875 0 L 45.40625 -50.21875 L 33.890625 -50.21875 L 33.890625 0 L 13.765625 0 L 13.765625 -70.171875 L 32.859375 -70.171875 L 13.765625 -100.28125 L 13.765625 -120.40625 L 53.84375 -120.40625 C 53.84375 -120.40625 54.816406 -120.347656 56.765625 -120.234375 C 58.710938 -120.117188 61.203125 -119.742188 64.234375 -119.109375 C 67.273438 -118.472656 70.515625 -117.4375 73.953125 -116 C 77.398438 -114.570312 80.640625 -112.566406 83.671875 -109.984375 C 86.710938 -107.410156 89.207031 -104.113281 91.15625 -100.09375 C 93.101562 -96.082031 94.078125 -91.15625 94.078125 -85.3125 C 94.078125 -78.195312 92.671875 -72.40625 89.859375 -67.9375 C 87.054688 -63.46875 83.617188 -60.03125 79.546875 -57.625 C 75.472656 -55.21875 71.488281 -53.4375 67.59375 -52.28125 L 100.28125 0 Z M 56.421875 -70.34375 C 58.253906 -70.570312 60.546875 -71.085938 63.296875 -71.890625 C 66.046875 -72.691406 68.507812 -74.15625 70.6875 -76.28125 C 72.863281 -78.40625 73.953125 -81.414062 73.953125 -85.3125 C 73.953125 -89.09375 72.945312 -91.988281 70.9375 -94 C 68.9375 -96.007812 66.585938 -97.472656 63.890625 -98.390625 C 61.203125 -99.304688 58.851562 -99.847656 56.84375 -100.015625 C 54.84375 -100.191406 53.84375 -100.28125 53.84375 -100.28125 L 37.671875 -100.28125 Z M 56.421875 -70.34375 " /></g></g></g><g fill="#ffffff" fill-opacity="1"><g transform="translate(486.824115, 1029.765995)"><g /></g></g><g fill="#ffffff" fill-opacity="1"><g transform="translate(546.162767, 1029.765995)"><g><path d="M 110.59375 -120.40625 L 65.359375 -56.9375 L 65.359375 0 L 45.234375 0 L 45.234375 -56.9375 L 0 -120.40625 L 24.59375 -120.40625 L 55.390625 -77.40625 L 86 -120.40625 Z M 110.59375 -120.40625 " /></g></g></g><g fill="#ffffff" fill-opacity="1"><g transform="translate(657.10025, 1029.765995)"><g /></g></g><g fill="#fdba02" fill-opacity="1"><g transform="translate(716.449194, 1029.765995)"><g><path d="M 33.71875 -20.125 L 78.265625 -20.125 L 78.265625 0 L 13.59375 0 L 13.59375 -120.40625 L 33.71875 -120.40625 Z M 33.71875 -20.125 " /></g></g></g><g fill="#fdba02" fill-opacity="1"><g transform="translate(802.628874, 1029.765995)"><g /></g></g><g fill="#fdba02" fill-opacity="1"><g transform="translate(861.967527, 1029.765995)"><g /></g></g><g fill="#fdba02" fill-opacity="1"><g transform="translate(921.316364, 1029.765995)"><g><path d="M 73.609375 -60.03125 C 79.347656 -58.882812 83.707031 -56.929688 86.6875 -54.171875 C 89.664062 -51.421875 91.785156 -48.554688 93.046875 -45.578125 C 94.304688 -42.597656 95.019531 -40.019531 95.1875 -37.84375 C 95.363281 -35.664062 95.453125 -34.578125 95.453125 -34.578125 C 95.453125 -27.921875 94.304688 -22.472656 92.015625 -18.234375 C 89.722656 -13.992188 86.769531 -10.640625 83.15625 -8.171875 C 79.550781 -5.703125 75.796875 -3.863281 71.890625 -2.65625 C 67.992188 -1.457031 64.382812 -0.710938 61.0625 -0.421875 C 57.738281 -0.140625 55.269531 0 53.65625 0 L 13.59375 0 L 13.59375 -120.234375 L 53.65625 -120.234375 C 53.65625 -120.234375 54.628906 -120.203125 56.578125 -120.140625 C 58.535156 -120.085938 61.03125 -119.773438 64.0625 -119.203125 C 67.101562 -118.628906 70.316406 -117.679688 73.703125 -116.359375 C 77.085938 -115.035156 80.296875 -113.140625 83.328125 -110.671875 C 86.367188 -108.210938 88.863281 -105.03125 90.8125 -101.125 C 92.757812 -97.226562 93.734375 -92.359375 93.734375 -86.515625 C 93.734375 -81.242188 92.785156 -76.800781 90.890625 -73.1875 C 89.003906 -69.570312 86.515625 -66.703125 83.421875 -64.578125 C 80.328125 -62.460938 77.054688 -60.945312 73.609375 -60.03125 Z M 33.546875 -70.171875 L 53.65625 -70.171875 C 53.65625 -70.171875 54.660156 -70.253906 56.671875 -70.421875 C 58.679688 -70.597656 61.003906 -71.144531 63.640625 -72.0625 C 66.273438 -72.976562 68.59375 -74.441406 70.59375 -76.453125 C 72.601562 -78.460938 73.609375 -81.359375 73.609375 -85.140625 C 73.609375 -89.148438 72.601562 -92.21875 70.59375 -94.34375 C 68.59375 -96.46875 66.273438 -97.929688 63.640625 -98.734375 C 61.003906 -99.535156 58.679688 -99.992188 56.671875 -100.109375 C 54.660156 -100.222656 53.65625 -100.28125 53.65625 -100.28125 L 33.546875 -100.28125 Z M 53.65625 -19.953125 C 56.53125 -19.953125 59.628906 -20.296875 62.953125 -20.984375 C 66.273438 -21.671875 69.171875 -23.101562 71.640625 -25.28125 C 74.109375 -27.457031 75.34375 -30.726562 75.34375 -35.09375 C 75.34375 -38.300781 74.625 -40.878906 73.1875 -42.828125 C 71.75 -44.773438 69.941406 -46.265625 67.765625 -47.296875 C 65.585938 -48.328125 63.410156 -49.039062 61.234375 -49.4375 C 59.054688 -49.84375 57.25 -50.046875 55.8125 -50.046875 C 54.375 -50.046875 53.65625 -50.046875 53.65625 -50.046875 L 33.546875 -50.046875 L 33.546875 -19.953125 Z M 53.65625 -19.953125 " /></g></g></g><g fill="#fdba02" fill-opacity="1"><g transform="translate(1025.030017, 1029.765995)"><g><path d="M 46.953125 1.71875 C 40.078125 1.488281 33.800781 0.0273438 28.125 -2.65625 C 22.445312 -5.351562 17.914062 -9.28125 14.53125 -14.4375 C 11.144531 -19.601562 9.394531 -25.914062 9.28125 -33.375 L 29.40625 -33.375 C 29.632812 -28.4375 31.5 -24.707031 35 -22.1875 C 38.5 -19.664062 42.484375 -18.40625 46.953125 -18.40625 C 51.660156 -18.40625 55.757812 -19.804688 59.25 -22.609375 C 62.75 -25.421875 64.5 -29.179688 64.5 -33.890625 C 64.5 -37.328125 63.609375 -40.25 61.828125 -42.65625 C 60.054688 -45.0625 57.820312 -46.953125 55.125 -48.328125 C 52.425781 -49.703125 49.703125 -50.445312 46.953125 -50.5625 C 46.492188 -50.5625 44.457031 -50.734375 40.84375 -51.078125 C 37.238281 -51.421875 33.253906 -52.570312 28.890625 -54.53125 C 22.585938 -57.507812 17.742188 -61.601562 14.359375 -66.8125 C 10.972656 -72.03125 9.28125 -78.195312 9.28125 -85.3125 C 9.28125 -93 11.054688 -99.5625 14.609375 -105 C 18.171875 -110.445312 22.847656 -114.660156 28.640625 -117.640625 C 34.429688 -120.628906 40.535156 -122.125 46.953125 -122.125 C 53.953125 -122.125 60.226562 -120.660156 65.78125 -117.734375 C 71.34375 -114.804688 75.757812 -110.765625 79.03125 -105.609375 C 82.300781 -100.453125 83.992188 -94.429688 84.109375 -87.546875 L 64.15625 -87.546875 C 64.039062 -92.585938 62.289062 -96.253906 58.90625 -98.546875 C 55.53125 -100.847656 51.546875 -102 46.953125 -102 C 42.253906 -102 38.15625 -100.617188 34.65625 -97.859375 C 31.15625 -95.109375 29.40625 -90.925781 29.40625 -85.3125 C 29.40625 -80.382812 31.210938 -76.597656 34.828125 -73.953125 C 38.441406 -71.316406 42.484375 -70 46.953125 -70 C 47.410156 -70 49.445312 -69.828125 53.0625 -69.484375 C 56.675781 -69.140625 60.601562 -67.992188 64.84375 -66.046875 C 71.257812 -63.179688 76.128906 -58.878906 79.453125 -53.140625 C 82.785156 -47.410156 84.453125 -40.992188 84.453125 -33.890625 C 84.453125 -26.203125 82.671875 -19.71875 79.109375 -14.4375 C 75.554688 -9.164062 70.941406 -5.15625 65.265625 -2.40625 C 59.597656 0.339844 53.492188 1.71875 46.953125 1.71875 Z M 46.953125 1.71875 " /></g></g></g><g transform="matrix(1, 0, 0, 1, 459, 1069)"><g clip-path="url(#7fd75ae1de)"><g fill="#ffffff" fill-opacity="1"><g transform="translate(2.871982, 26.632058)"><g><path d="M 10.34375 -23.875 C 11.613281 -23.875 12.851562 -23.6875 14.0625 -23.3125 C 15.28125 -22.945312 16.179688 -22.582031 16.765625 -22.21875 L 17.625 -21.65625 L 15.46875 -17.390625 C 15.289062 -17.503906 15.050781 -17.648438 14.75 -17.828125 C 14.445312 -18.015625 13.878906 -18.257812 13.046875 -18.5625 C 12.210938 -18.863281 11.4375 -19.015625 10.71875 -19.015625 C 9.820312 -19.015625 9.132812 -18.820312 8.65625 -18.4375 C 8.175781 -18.0625 7.9375 -17.550781 7.9375 -16.90625 C 7.9375 -16.582031 8.046875 -16.285156 8.265625 -16.015625 C 8.492188 -15.742188 8.882812 -15.453125 9.4375 -15.140625 C 9.988281 -14.828125 10.472656 -14.570312 10.890625 -14.375 C 11.304688 -14.1875 11.945312 -13.90625 12.8125 -13.53125 C 14.332031 -12.882812 15.625 -12.003906 16.6875 -10.890625 C 17.757812 -9.785156 18.296875 -8.535156 18.296875 -7.140625 C 18.296875 -5.785156 18.054688 -4.609375 17.578125 -3.609375 C 17.097656 -2.609375 16.4375 -1.820312 15.59375 -1.25 C 14.75 -0.675781 13.8125 -0.253906 12.78125 0.015625 C 11.757812 0.285156 10.65625 0.421875 9.46875 0.421875 C 8.445312 0.421875 7.441406 0.316406 6.453125 0.109375 C 5.460938 -0.0976562 4.632812 -0.359375 3.96875 -0.671875 C 3.3125 -0.984375 2.71875 -1.289062 2.1875 -1.59375 C 1.65625 -1.894531 1.265625 -2.148438 1.015625 -2.359375 L 0.65625 -2.671875 L 3.328125 -7.15625 C 3.554688 -6.96875 3.867188 -6.726562 4.265625 -6.4375 C 4.660156 -6.144531 5.363281 -5.75 6.375 -5.25 C 7.394531 -4.757812 8.289062 -4.515625 9.0625 -4.515625 C 11.320312 -4.515625 12.453125 -5.285156 12.453125 -6.828125 C 12.453125 -7.140625 12.367188 -7.429688 12.203125 -7.703125 C 12.046875 -7.984375 11.765625 -8.257812 11.359375 -8.53125 C 10.953125 -8.8125 10.59375 -9.03125 10.28125 -9.1875 C 9.96875 -9.351562 9.453125 -9.601562 8.734375 -9.9375 C 8.023438 -10.269531 7.5 -10.519531 7.15625 -10.6875 C 5.738281 -11.382812 4.640625 -12.257812 3.859375 -13.3125 C 3.085938 -14.363281 2.703125 -15.5 2.703125 -16.71875 C 2.703125 -18.8125 3.476562 -20.523438 5.03125 -21.859375 C 6.582031 -23.203125 8.351562 -23.875 10.34375 -23.875 Z M 10.34375 -23.875 " /></g></g></g><g fill="#ffffff" fill-opacity="1"><g transform="translate(31.48629, 26.632058)"><g><path d="M 0.65625 -11.734375 C 0.65625 -15.128906 1.8125 -18 4.125 -20.34375 C 6.4375 -22.695312 9.222656 -23.875 12.484375 -23.875 C 15.753906 -23.875 18.535156 -22.703125 20.828125 -20.359375 C 23.117188 -18.023438 24.265625 -15.148438 24.265625 -11.734375 C 24.265625 -8.304688 23.140625 -5.421875 20.890625 -3.078125 C 18.640625 -0.742188 15.835938 0.421875 12.484375 0.421875 C 9.046875 0.421875 6.210938 -0.734375 3.984375 -3.046875 C 1.765625 -5.367188 0.65625 -8.265625 0.65625 -11.734375 Z M 6.421875 -11.734375 C 6.421875 -10.503906 6.609375 -9.378906 6.984375 -8.359375 C 7.367188 -7.347656 8.035156 -6.492188 8.984375 -5.796875 C 9.929688 -5.097656 11.097656 -4.75 12.484375 -4.75 C 14.472656 -4.75 15.972656 -5.429688 16.984375 -6.796875 C 17.992188 -8.160156 18.5 -9.804688 18.5 -11.734375 C 18.5 -13.648438 17.984375 -15.296875 16.953125 -16.671875 C 15.921875 -18.046875 14.429688 -18.734375 12.484375 -18.734375 C 10.546875 -18.734375 9.050781 -18.046875 8 -16.671875 C 6.945312 -15.296875 6.421875 -13.648438 6.421875 -11.734375 Z M 6.421875 -11.734375 " /></g></g></g><g fill="#ffffff" fill-opacity="1"><g transform="translate(65.925733, 26.632058)"><g><path d="M 7.046875 -23.453125 L 7.046875 -4.6875 L 15.125 -4.6875 L 15.125 0 L 1.703125 0 L 1.703125 -23.453125 Z M 7.046875 -23.453125 " /></g></g></g><g fill="#ffffff" fill-opacity="1"><g transform="translate(91.499603, 26.632058)"><g><path d="M 19.71875 -23.453125 L 19.71875 -8.328125 C 19.71875 -5.441406 18.941406 -3.257812 17.390625 -1.78125 C 15.835938 -0.3125 13.5625 0.421875 10.5625 0.421875 C 7.570312 0.421875 5.300781 -0.3125 3.75 -1.78125 C 2.195312 -3.257812 1.421875 -5.441406 1.421875 -8.328125 L 1.421875 -23.453125 L 6.765625 -23.453125 L 6.765625 -9.890625 C 6.765625 -7.992188 7.0625 -6.675781 7.65625 -5.9375 C 8.257812 -5.195312 9.234375 -4.828125 10.578125 -4.828125 C 11.921875 -4.828125 12.890625 -5.195312 13.484375 -5.9375 C 14.078125 -6.675781 14.375 -7.992188 14.375 -9.890625 L 14.375 -23.453125 Z M 19.71875 -23.453125 " /></g></g></g><g fill="#ffffff" fill-opacity="1"><g transform="translate(122.159827, 26.632058)"><g><path d="M 14.1875 -4.828125 C 15 -4.828125 15.785156 -4.953125 16.546875 -5.203125 C 17.316406 -5.453125 17.882812 -5.6875 18.25 -5.90625 L 18.78125 -6.28125 L 21.0625 -1.734375 C 20.988281 -1.679688 20.882812 -1.601562 20.75 -1.5 C 20.613281 -1.40625 20.300781 -1.226562 19.8125 -0.96875 C 19.332031 -0.71875 18.816406 -0.5 18.265625 -0.3125 C 17.722656 -0.125 17.003906 0.0390625 16.109375 0.1875 C 15.222656 0.34375 14.304688 0.421875 13.359375 0.421875 C 11.179688 0.421875 9.113281 -0.109375 7.15625 -1.171875 C 5.207031 -2.242188 3.632812 -3.71875 2.4375 -5.59375 C 1.25 -7.46875 0.65625 -9.5 0.65625 -11.6875 C 0.65625 -13.332031 1.003906 -14.910156 1.703125 -16.421875 C 2.398438 -17.941406 3.332031 -19.238281 4.5 -20.3125 C 5.664062 -21.394531 7.023438 -22.257812 8.578125 -22.90625 C 10.128906 -23.550781 11.722656 -23.875 13.359375 -23.875 C 14.867188 -23.875 16.265625 -23.691406 17.546875 -23.328125 C 18.828125 -22.972656 19.734375 -22.613281 20.265625 -22.25 L 21.0625 -21.71875 L 18.78125 -17.171875 C 18.65625 -17.285156 18.457031 -17.421875 18.1875 -17.578125 C 17.925781 -17.742188 17.394531 -17.957031 16.59375 -18.21875 C 15.800781 -18.476562 15 -18.609375 14.1875 -18.609375 C 12.894531 -18.609375 11.738281 -18.398438 10.71875 -17.984375 C 9.695312 -17.566406 8.882812 -17.015625 8.28125 -16.328125 C 7.6875 -15.648438 7.234375 -14.914062 6.921875 -14.125 C 6.609375 -13.34375 6.453125 -12.546875 6.453125 -11.734375 C 6.453125 -9.953125 7.117188 -8.351562 8.453125 -6.9375 C 9.785156 -5.53125 11.695312 -4.828125 14.1875 -4.828125 Z M 14.1875 -4.828125 " /></g></g></g><g fill="#ffffff" fill-opacity="1"><g transform="translate(153.075753, 26.632058)"><g><path d="M 7.046875 -23.453125 L 7.046875 0 L 1.703125 0 L 1.703125 -23.453125 Z M 7.046875 -23.453125 " /></g></g></g><g fill="#ffffff" fill-opacity="1"><g transform="translate(171.346922, 26.632058)"><g><path d="M 0.65625 -11.734375 C 0.65625 -15.128906 1.8125 -18 4.125 -20.34375 C 6.4375 -22.695312 9.222656 -23.875 12.484375 -23.875 C 15.753906 -23.875 18.535156 -22.703125 20.828125 -20.359375 C 23.117188 -18.023438 24.265625 -15.148438 24.265625 -11.734375 C 24.265625 -8.304688 23.140625 -5.421875 20.890625 -3.078125 C 18.640625 -0.742188 15.835938 0.421875 12.484375 0.421875 C 9.046875 0.421875 6.210938 -0.734375 3.984375 -3.046875 C 1.765625 -5.367188 0.65625 -8.265625 0.65625 -11.734375 Z M 6.421875 -11.734375 C 6.421875 -10.503906 6.609375 -9.378906 6.984375 -8.359375 C 7.367188 -7.347656 8.035156 -6.492188 8.984375 -5.796875 C 9.929688 -5.097656 11.097656 -4.75 12.484375 -4.75 C 14.472656 -4.75 15.972656 -5.429688 16.984375 -6.796875 C 17.992188 -8.160156 18.5 -9.804688 18.5 -11.734375 C 18.5 -13.648438 17.984375 -15.296875 16.953125 -16.671875 C 15.921875 -18.046875 14.429688 -18.734375 12.484375 -18.734375 C 10.546875 -18.734375 9.050781 -18.046875 8 -16.671875 C 6.945312 -15.296875 6.421875 -13.648438 6.421875 -11.734375 Z M 6.421875 -11.734375 " /></g></g></g><g fill="#ffffff" fill-opacity="1"><g transform="translate(205.786366, 26.632058)"><g><path d="M 7.046875 -14.546875 L 7.046875 0 L 1.703125 0 L 1.703125 -23.453125 L 7.046875 -23.453125 L 16.375 -8.890625 L 16.421875 -8.890625 L 16.421875 -23.453125 L 21.765625 -23.453125 L 21.765625 0 L 16.421875 0 L 7.109375 -14.546875 Z M 7.046875 -14.546875 " /></g></g></g><g fill="#ffffff" fill-opacity="1"><g transform="translate(238.776607, 26.632058)"><g><path d="M 15.125 -23.453125 L 15.125 -18.765625 L 7.046875 -18.765625 L 7.046875 -14.09375 L 14.78125 -14.09375 L 14.78125 -9.40625 L 7.046875 -9.40625 L 7.046875 -4.6875 L 15.125 -4.6875 L 15.125 0 L 1.703125 0 L 1.703125 -23.453125 Z M 15.125 -23.453125 " /></g></g></g><g fill="#ffffff" fill-opacity="1"><g transform="translate(264.776722, 26.632058)"><g><path d="M 10.34375 -23.875 C 11.613281 -23.875 12.851562 -23.6875 14.0625 -23.3125 C 15.28125 -22.945312 16.179688 -22.582031 16.765625 -22.21875 L 17.625 -21.65625 L 15.46875 -17.390625 C 15.289062 -17.503906 15.050781 -17.648438 14.75 -17.828125 C 14.445312 -18.015625 13.878906 -18.257812 13.046875 -18.5625 C 12.210938 -18.863281 11.4375 -19.015625 10.71875 -19.015625 C 9.820312 -19.015625 9.132812 -18.820312 8.65625 -18.4375 C 8.175781 -18.0625 7.9375 -17.550781 7.9375 -16.90625 C 7.9375 -16.582031 8.046875 -16.285156 8.265625 -16.015625 C 8.492188 -15.742188 8.882812 -15.453125 9.4375 -15.140625 C 9.988281 -14.828125 10.472656 -14.570312 10.890625 -14.375 C 11.304688 -14.1875 11.945312 -13.90625 12.8125 -13.53125 C 14.332031 -12.882812 15.625 -12.003906 16.6875 -10.890625 C 17.757812 -9.785156 18.296875 -8.535156 18.296875 -7.140625 C 18.296875 -5.785156 18.054688 -4.609375 17.578125 -3.609375 C 17.097656 -2.609375 16.4375 -1.820312 15.59375 -1.25 C 14.75 -0.675781 13.8125 -0.253906 12.78125 0.015625 C 11.757812 0.285156 10.65625 0.421875 9.46875 0.421875 C 8.445312 0.421875 7.441406 0.316406 6.453125 0.109375 C 5.460938 -0.0976562 4.632812 -0.359375 3.96875 -0.671875 C 3.3125 -0.984375 2.71875 -1.289062 2.1875 -1.59375 C 1.65625 -1.894531 1.265625 -2.148438 1.015625 -2.359375 L 0.65625 -2.671875 L 3.328125 -7.15625 C 3.554688 -6.96875 3.867188 -6.726562 4.265625 -6.4375 C 4.660156 -6.144531 5.363281 -5.75 6.375 -5.25 C 7.394531 -4.757812 8.289062 -4.515625 9.0625 -4.515625 C 11.320312 -4.515625 12.453125 -5.285156 12.453125 -6.828125 C 12.453125 -7.140625 12.367188 -7.429688 12.203125 -7.703125 C 12.046875 -7.984375 11.765625 -8.257812 11.359375 -8.53125 C 10.953125 -8.8125 10.59375 -9.03125 10.28125 -9.1875 C 9.96875 -9.351562 9.453125 -9.601562 8.734375 -9.9375 C 8.023438 -10.269531 7.5 -10.519531 7.15625 -10.6875 C 5.738281 -11.382812 4.640625 -12.257812 3.859375 -13.3125 C 3.085938 -14.363281 2.703125 -15.5 2.703125 -16.71875 C 2.703125 -18.8125 3.476562 -20.523438 5.03125 -21.859375 C 6.582031 -23.203125 8.351562 -23.875 10.34375 -23.875 Z M 10.34375 -23.875 " /></g></g></g><g fill="#ffffff" fill-opacity="1"><g transform="translate(293.391029, 26.632058)"><g /></g></g><g fill="#ffffff" fill-opacity="1"><g transform="translate(310.667641, 26.632058)"><g><path d="M 1.703125 -10.40625 L 10.859375 -10.40625 L 10.859375 -6.046875 L 1.703125 -6.046875 Z M 1.703125 -10.40625 " /></g></g></g><g fill="#ffffff" fill-opacity="1"><g transform="translate(332.746429, 26.632058)"><g /></g></g><g fill="#ffffff" fill-opacity="1"><g transform="translate(350.02304, 26.632058)"><g><path d="M 1.703125 -23.453125 L 8.5 -23.453125 C 11.757812 -23.453125 14.546875 -22.335938 16.859375 -20.109375 C 19.171875 -17.878906 20.328125 -15.085938 20.328125 -11.734375 C 20.328125 -8.359375 19.175781 -5.554688 16.875 -3.328125 C 14.570312 -1.109375 11.78125 0 8.5 0 L 1.703125 0 Z M 7.046875 -4.78125 L 7.875 -4.78125 C 9.820312 -4.78125 11.414062 -5.4375 12.65625 -6.75 C 13.90625 -8.0625 14.535156 -9.710938 14.546875 -11.703125 C 14.546875 -13.691406 13.925781 -15.347656 12.6875 -16.671875 C 11.445312 -18.003906 9.84375 -18.671875 7.875 -18.671875 L 7.046875 -18.671875 Z M 7.046875 -4.78125 " /></g></g></g><g fill="#ffffff" fill-opacity="1"><g transform="translate(380.512759, 26.632058)"><g><path d="M 7.046875 -23.453125 L 7.046875 0 L 1.703125 0 L 1.703125 -23.453125 Z M 7.046875 -23.453125 " /></g></g></g><g fill="#ffffff" fill-opacity="1"><g transform="translate(398.783928, 26.632058)"><g><path d="M 22.90625 -13.125 L 22.90625 -8.046875 C 22.300781 -5.253906 20.972656 -3.144531 18.921875 -1.71875 C 16.878906 -0.289062 14.597656 0.421875 12.078125 0.421875 C 8.910156 0.421875 6.210938 -0.757812 3.984375 -3.125 C 1.765625 -5.488281 0.65625 -8.347656 0.65625 -11.703125 C 0.65625 -15.117188 1.742188 -18 3.921875 -20.34375 C 6.097656 -22.695312 8.816406 -23.875 12.078125 -23.875 C 15.890625 -23.875 18.90625 -22.535156 21.125 -19.859375 L 17.625 -16.03125 C 16.375 -18.039062 14.628906 -19.046875 12.390625 -19.046875 C 10.742188 -19.046875 9.335938 -18.328125 8.171875 -16.890625 C 7.003906 -15.460938 6.421875 -13.734375 6.421875 -11.703125 C 6.421875 -9.710938 7.003906 -8.007812 8.171875 -6.59375 C 9.335938 -5.1875 10.742188 -4.484375 12.390625 -4.484375 C 13.753906 -4.484375 14.941406 -4.894531 15.953125 -5.71875 C 16.972656 -6.550781 17.484375 -7.648438 17.484375 -9.015625 L 12.078125 -9.015625 L 12.078125 -13.125 Z M 22.90625 -13.125 " /></g></g></g><g fill="#ffffff" fill-opacity="1"><g transform="translate(431.85944, 26.632058)"><g><path d="M 7.046875 -23.453125 L 7.046875 0 L 1.703125 0 L 1.703125 -23.453125 Z M 7.046875 -23.453125 " /></g></g></g><g fill="#ffffff" fill-opacity="1"><g transform="translate(450.130609, 26.632058)"><g><path d="M 0.234375 -18.765625 L 0.234375 -23.453125 L 16.71875 -23.453125 L 16.71875 -18.765625 L 11.140625 -18.765625 L 11.140625 0 L 5.796875 0 L 5.796875 -18.765625 Z M 0.234375 -18.765625 " /></g></g></g><g fill="#ffffff" fill-opacity="1"><g transform="translate(476.585368, 26.632058)"><g><path d="M 13.609375 -23.453125 L 23.078125 0 L 17.34375 0 L 15.609375 -4.6875 L 6.671875 -4.6875 L 4.953125 0 L -0.796875 0 L 8.671875 -23.453125 Z M 13.78125 -9.375 L 11.171875 -16.203125 L 11.109375 -16.203125 L 8.5 -9.375 Z M 13.78125 -9.375 " /></g></g></g><g fill="#ffffff" fill-opacity="1"><g transform="translate(508.382182, 26.632058)"><g><path d="M 7.046875 -23.453125 L 7.046875 -4.6875 L 15.125 -4.6875 L 15.125 0 L 1.703125 0 L 1.703125 -23.453125 Z M 7.046875 -23.453125 " /></g></g></g><g fill="#ffffff" fill-opacity="1"><g transform="translate(533.956053, 26.632058)"><g><path d="M 15.125 -23.453125 L 15.125 -18.765625 L 7.046875 -18.765625 L 7.046875 -14.09375 L 14.78125 -14.09375 L 14.78125 -9.40625 L 7.046875 -9.40625 L 7.046875 -4.6875 L 15.125 -4.6875 L 15.125 0 L 1.703125 0 L 1.703125 -23.453125 Z M 15.125 -23.453125 " /></g></g></g><g fill="#ffffff" fill-opacity="1"><g transform="translate(559.956167, 26.632058)"><g><path d="M 10.34375 -23.875 C 11.613281 -23.875 12.851562 -23.6875 14.0625 -23.3125 C 15.28125 -22.945312 16.179688 -22.582031 16.765625 -22.21875 L 17.625 -21.65625 L 15.46875 -17.390625 C 15.289062 -17.503906 15.050781 -17.648438 14.75 -17.828125 C 14.445312 -18.015625 13.878906 -18.257812 13.046875 -18.5625 C 12.210938 -18.863281 11.4375 -19.015625 10.71875 -19.015625 C 9.820312 -19.015625 9.132812 -18.820312 8.65625 -18.4375 C 8.175781 -18.0625 7.9375 -17.550781 7.9375 -16.90625 C 7.9375 -16.582031 8.046875 -16.285156 8.265625 -16.015625 C 8.492188 -15.742188 8.882812 -15.453125 9.4375 -15.140625 C 9.988281 -14.828125 10.472656 -14.570312 10.890625 -14.375 C 11.304688 -14.1875 11.945312 -13.90625 12.8125 -13.53125 C 14.332031 -12.882812 15.625 -12.003906 16.6875 -10.890625 C 17.757812 -9.785156 18.296875 -8.535156 18.296875 -7.140625 C 18.296875 -5.785156 18.054688 -4.609375 17.578125 -3.609375 C 17.097656 -2.609375 16.4375 -1.820312 15.59375 -1.25 C 14.75 -0.675781 13.8125 -0.253906 12.78125 0.015625 C 11.757812 0.285156 10.65625 0.421875 9.46875 0.421875 C 8.445312 0.421875 7.441406 0.316406 6.453125 0.109375 C 5.460938 -0.0976562 4.632812 -0.359375 3.96875 -0.671875 C 3.3125 -0.984375 2.71875 -1.289062 2.1875 -1.59375 C 1.65625 -1.894531 1.265625 -2.148438 1.015625 -2.359375 L 0.65625 -2.671875 L 3.328125 -7.15625 C 3.554688 -6.96875 3.867188 -6.726562 4.265625 -6.4375 C 4.660156 -6.144531 5.363281 -5.75 6.375 -5.25 C 7.394531 -4.757812 8.289062 -4.515625 9.0625 -4.515625 C 11.320312 -4.515625 12.453125 -5.285156 12.453125 -6.828125 C 12.453125 -7.140625 12.367188 -7.429688 12.203125 -7.703125 C 12.046875 -7.984375 11.765625 -8.257812 11.359375 -8.53125 C 10.953125 -8.8125 10.59375 -9.03125 10.28125 -9.1875 C 9.96875 -9.351562 9.453125 -9.601562 8.734375 -9.9375 C 8.023438 -10.269531 7.5 -10.519531 7.15625 -10.6875 C 5.738281 -11.382812 4.640625 -12.257812 3.859375 -13.3125 C 3.085938 -14.363281 2.703125 -15.5 2.703125 -16.71875 C 2.703125 -18.8125 3.476562 -20.523438 5.03125 -21.859375 C 6.582031 -23.203125 8.351562 -23.875 10.34375 -23.875 Z M 10.34375 -23.875 " /></g></g></g></g></g><g fill="#ffffff" fill-opacity="1"><g transform="translate(579.507631, 910.06279)"><g><path d="M -96.140625 120.40625 L -47.984375 -3.09375 L 0 120.40625 L -21.671875 120.40625 L -47.984375 49.359375 L -74.46875 120.40625 Z M -96.140625 120.40625 " /></g></g></g><g fill="#ffffff" fill-opacity="1"><g transform="translate(483.179515, 910.06279)"><g /></g></g><g fill="#fdba02" fill-opacity="1"><g transform="translate(915.897377, 910.06279)"><g><path d="M -96.140625 120.40625 L -47.984375 -3.09375 L 0 120.40625 L -21.671875 120.40625 L -47.984375 49.359375 L -74.46875 120.40625 Z M -96.140625 120.40625 " /></g></g></g></svg>